{"title":"Badehotellet  S01E04 - Stormen Raser_(Jaws-720p-DC)","uid":9533806,"size":2923102208,"categoryP":"video","categoryS":"hd___tv_shows","magnet":"?xt=urn:btih:c738fa39e541417d9ec8f4decf475ce48026de6e&amp;dn=Badehotellet++S01E04+-+Stormen+Raser_%28Jaws-720p-DC%29&amp;tr=udp%3A%2F%2Ftracker.openbittorrent.com%3A80&amp;tr=udp%3A%2F%2Fopen.demonii.com%3A1337&amp;tr=udp%3A%2F%2Ftracker.coppersurfer.tk%3A6969&amp;tr=udp%3A%2F%2Fexodus.desync.com%3A6969","seeders":1,"leechers":1,"uploader":"Jaws_dk","files":1,"time":1390886359,"description":"TV2 Comedy/Drama, Badehotellet - Stormen Raser - Season 1 - Episode 4\n\n\nDigital TV-Rip: JawsDK(2014)\nTS-Stream Edit: JawsDK(2014)\n\nLanguage      : Dansk/Danish\nSubtitles     : Nej/None\n\n\nFile Info:\n\n\n\nGeneral\nID                                       : 0 (0x0)\nComplete name                            : TV2 HD_Badehotellet  S01E04 - Stormen Raser_(Jaws-720p-DC).ts\nFormat                                   : MPEG-TS\nFile size                                : 2.72 GiB\nDuration                                 : 44mn 59s\nOverall bit rate mode                    : Variable\nOverall bit rate                         : 8 663 Kbps\n\nVideo\nID                                       : 512 (0x200)\nMenu ID                                  : 1 (0x1)\nFormat                                   : AVC\nFormat/Info                              : Advanced Video Codec\nFormat profile                           : &lt;a class=&quot;__cf_email__&quot; href=&quot;/cdn-cgi/l/email-protection&quot; data-cfemail=&quot;97dffef0ffd7dba3b9a7&quot;&gt;[email&amp;#160;protected]&lt;/a&gt;&lt;script cf-hash='f9e31' type=&quot;text/javascript&quot;&gt;\n/* &lt;![CDATA[ */!function(){try{var t=&quot;currentScript&quot;in document?document.currentScript:function(){for(var t=document.getElementsByTagName(&quot;script&quot;),e=t.length;e--;)if(t[e].getAttribute(&quot;cf-hash&quot;))return t[e]}();if(t&amp;&amp;t.previousSibling){var e,r,n,i,c=t.previousSibling,a=c.getAttribute(&quot;data-cfemail&quot;);if(a){for(e=&quot;&quot;,r=parseInt(a.substr(0,2),16),n=2;a.length-n;n+=2)i=parseInt(a.substr(n,2),16)^r,e+=String.fromCharCode(i);e=document.createTextNode(e),c.parentNode.replaceChild(e,c)}}}catch(u){}}();/* ]]&gt; */&lt;/script&gt;\nFormat settings, CABAC                   : Yes\nFormat settings, ReFrames                : 4 frames\nFormat settings, GOP                     : M=8, N=48\nCodec ID                                 : 27\nDuration                                 : 44mn 58s\nBit rate                                 : 7 588 Kbps\nWidth                                    : 1 280 pixels\nHeight                                   : 720 pixels\nDisplay aspect ratio                     : 16:9\nFrame rate                               : 50.000 fps\nStandard                                 : Component\nColor space                              : YUV\nChroma subsampling                       : 4:2:0\nBit depth                                : 8 bits\nScan type                                : Progressive\nBits/(Pixel*Frame)                       : 0.165\nStream size                              : 2.38 GiB (88%)\nColor primaries                          : BT.709\nTransfer characteristics                 : BT.709\nMatrix coefficients                      : BT.709\n\nAudio #1\nID                                       : 513 (0x201)\nMenu ID                                  : 1 (0x1)\nFormat                                   : AC-3\nFormat/Info                              : Audio Coding 3\nMode extension                           : CM (complete main)\nFormat settings, Endianness              : Big\nCodec ID                                 : 129\nDuration                                 : 44mn 58s\nBit rate mode                            : Constant\nBit rate                                 : 448 Kbps\nChannel(s)                               : 6 channels\nChannel positions                        : Front: L C R, Side: L R, LFE\nSampling rate                            : 48.0 KHz\nBit depth                                : 16 bits\nCompression mode                         : Lossy\nStream size                              : 144 MiB (5%)\n\nAudio #2\nID                                       : 514 (0x202)\nMenu ID                                  : 1 (0x1)\nFormat                                   : MPEG Audio\nFormat version                           : Version 1\nFormat profile                           : Layer 2\nCodec ID                                 : 3\nDuration                                 : 44mn 58s\nBit rate mode                            : Constant\nBit rate                                 : 192 Kbps\nChannel(s)                               : 2 channels\nSampling rate                            : 48.0 KHz\nCompression mode                         : Lossy\nStream size                              : 61.8 MiB (2%)\n\n\n\n\n\n\n\nPLEASE SEED AFTER DOWNLOAD!!!.","torrent":{"xt":"urn:btih:c738fa39e541417d9ec8f4decf475ce48026de6e","amp;dn":"Badehotellet++S01E04+-+Stormen+Raser_%28Jaws-720p-DC%29","amp;tr":["udp%3A%2F%2Ftracker.openbittorrent.com%3A80","udp%3A%2F%2Fopen.demonii.com%3A1337","udp%3A%2F%2Ftracker.coppersurfer.tk%3A6969","udp%3A%2F%2Fexodus.desync.com%3A6969"],"infoHash":"c738fa39e541417d9ec8f4decf475ce48026de6e","infoHashBuffer":{"type":"Buffer","data":[199,56,250,57,229,65,65,125,158,200,244,222,207,71,92,228,128,38,222,110]},"announce":[],"urlList":[]}}